<?xml version="1.0" encoding="UTF-8" standalone="no"?>
<svg
   xmlns:dc="http://purl.org/dc/elements/1.1/"
   xmlns:cc="http://creativecommons.org/ns#"
   xmlns:rdf="http://www.w3.org/1999/02/22-rdf-syntax-ns#"
   xmlns:svg="http://www.w3.org/2000/svg"
   xmlns="http://www.w3.org/2000/svg"
   xmlns:sodipodi="http://sodipodi.sourceforge.net/DTD/sodipodi-0.dtd"
   xmlns:inkscape="http://www.inkscape.org/namespaces/inkscape"
   inkscape:version="1.0 (4035a4fb49, 2020-05-01)"
   height="26.000004"
   width="25.997303"
   sodipodi:docname="cart.svg"
   id="svg22"
   version="1.1"
   viewBox="0 0 25.997303 26.000004">
  <metadata
     id="metadata26">
    <rdf:RDF>
      <cc:Work
         rdf:about="">
        <dc:format>image/svg+xml</dc:format>
        <dc:type
           rdf:resource="http://purl.org/dc/dcmitype/StillImage" />
        <dc:title></dc:title>
      </cc:Work>
    </rdf:RDF>
  </metadata>
  <sodipodi:namedview
     inkscape:current-layer="svg22"
     inkscape:window-maximized="1"
     inkscape:window-y="-8"
     inkscape:window-x="-8"
     inkscape:cy="21.240376"
     inkscape:cx="22.460989"
     inkscape:zoom="13.4375"
     fit-margin-bottom="0"
     fit-margin-right="0"
     fit-margin-left="0"
     fit-margin-top="0"
     showgrid="false"
     id="namedview24"
     inkscape:window-height="1027"
     inkscape:window-width="1920"
     inkscape:pageshadow="2"
     inkscape:pageopacity="0"
     guidetolerance="10"
     gridtolerance="10"
     objecttolerance="10"
     borderopacity="1"
     bordercolor="#666666"
     pagecolor="#ffffff" />
  <defs
     id="defs4">
    <style
       id="style2">.cls-1{fill:none;}</style>
  </defs>
  <g
     transform="translate(-3,-2.999997)"
     style="fill:#ffffff"
     id="Layer_2"
     data-name="Layer 2">
    <path
       style="fill:#ffffff"
       id="path8"
       d="m 24.33,23 h -10.8 a 3,3 0 0 1 -2.9,-2.21 L 8,11.26 A 1,1 0 0 1 8.17,10.39 1,1 0 0 1 9,10 h 19 a 1,1 0 0 1 0.77,0.36 1,1 0 0 1 0.21,0.82 l -1.7,9.36 A 3,3 0 0 1 24.33,23 Z m -14,-11 2.25,8.26 a 1,1 0 0 0 1,0.74 h 10.8 a 1,1 0 0 0 1,-0.82 L 26.8,12 Z" />
    <path
       style="fill:#ffffff"
       id="path10"
       d="M 9,12 A 1,1 0 0 1 8,11.27 L 6.45,5.73 A 1,1 0 0 0 5.45,5 H 4 A 1,1 0 0 1 4,3 H 5.49 A 3,3 0 0 1 8.38,5.18 L 10,10.73 A 1,1 0 0 1 9.27,12 0.84,0.84 0 0 1 9,12 Z" />
    <path
       style="fill:#ffffff"
       id="path12"
       d="m 16,29 a 2,2 0 1 1 2,-2 2,2 0 0 1 -2,2 z m 0,-2 z m 0,0 z m 0,0 z m 0,0 z m 0,0 z m 0,0 z m 0,0 z m 0,0 z" />
    <path
       style="fill:#ffffff"
       id="path14"
       d="m 22,29 a 2,2 0 1 1 2,-2 2,2 0 0 1 -2,2 z m 0,-2 z" />
    <path
       style="fill:#ffffff"
       id="path16"
       d="m 22,17 h -6 a 1,1 0 0 1 0,-2 h 6 a 1,1 0 0 1 0,2 z" />
  </g>
</svg>
